<svg xmlns="http://www.w3.org/2000/svg" viewBox="0 0 700 960"><path fill="#a4c85e" stroke="#000" stroke-width="18" d="M 19,146 c 0,0 -15,13 -11,43 0,0 0,28 68,39 0,0 -10,21 4,47 0,0 27,31 27,31 0,0 -32,11 -31,49 0,0 37,4 48,27 0,0 -2,16 10,27 0,0 15,-17 24,1 0,0 7,26 -4,49 0,0 -41,27 -43,73 0,0 -2,57 39,93 0,0 5,61 -3,152 0,0 -7,8 -3,47 0,0 6,22 23,22 0,0 13,0 20,4 0,0 1,37 3,37 0,0 8,14 56,29 0,0 14,4 88,2 0,0 27,-10 80,33 0,0 27,-2 43,-28 0,0 21,-3 31,-20 0,0 35,-17 56,-82 0,0 -4,-68 30,-115 0,0 23,-13 15,-32 0,0 16,-27 26,-28 0,0 26,-33 29,-38 0,0 22,-25 33,-55 0,0 6,-13 -11,-23 0,0 -30,-6 -25,-46 0,0 40,-106 40,-167 0,0 -66,-57 -78,-110 0,0 -41,-74 -42,-126 0,0 -15,-68 -35,-57 0,0 -27,-25 -18,27 0,0 -18,6 -23,61 0,0 1,33 26,82 0,0 -10,40 -55,43 0,0 -20,-5 -20,-25 0,0 17,-35 -7,-37 0,0 -37,-10 -55,-2 0,0 -28,-23 -6,35 0,0 -17,38 -45,19 0,0 -8,-18 -25,-17 0,0 -48,-2 -48,-2 0,0 -20,2 -12,-29 0,0 -39,-16 -65,-17 0,0 -38,-15 -54,16 0,0 -25,34 -74,-3 0,0 -2,-26 -26,-29 z"></path><path fill="none" stroke="#000" stroke-width="6" d="M 198,302 c 0,0 8,-12 28,-23 0,0 17,-3 24,-15 0,0 40,-7 58,-1"></path><path fill="none" stroke="#000" stroke-width="6" d="M 416,296 c 0,0 3,-8 9,-7 0,0 6,3 9,-4 0,0 30,-23 88,-23"></path><g><path fill="#fff" stroke="#000" stroke-width="12" d="M 266,306 c 0,0 -17,2 -23,40 0,0 -9,15 -12,15 0,0 9,6 2,27 0,0 -1,9 -14,12 0,0 0,12 8,20 0,0 6,4 11,10 0,0 -14,20 43,54 0,0 69,23 73,-75 0,0 -5,-103 -88,-103 z"></path><path fill="#a4c85e" stroke="#000" stroke-width="6" d="M 245,353 c 0,0 10,-10 18,-6 0,0 6,-5 15,-8 0,0 17,-13 52,6 0,0 -12,-19 -23,-25 0,0 -7,-2 -23,-7 0,0 -16,-3 -27,6 0,0 -4,18 -12,34 z"></path><path fill="none" stroke="#000" stroke-width="6" d="M 234,466 c 0,0 5,-7 11,-6 0,0 16,15 16,15 0,0 -7,3 -10,8"></path><path fill="#a4c85e" stroke="#000" stroke-width="6" d="M 270,470 c 0,0 59,-4 60,1 0,0 -5,4 -13,10 0,0 -14,9 -31,5 0,0 -12,-3 -14,-9 z"></path><path fill="#000" stroke="#000" d="M 277,370 c 0,0 -29,10 -16,72 0,0 39,32 66,-18 0,0 9,-38 -26,-57 0,0 -11,-2 -24,3 z"></path><path fill="#fff" stroke="#fff" stroke-width="3" d="M 285,388 c 0,0 6,-6 11,-7"></path><path fill="#fff" stroke="#fff" stroke-width="2" d="M 297,395 c 0,0 6,-7 10,-5"></path></g><g><path fill="#fff" stroke="#000" stroke-width="12" d="M 435,314 c 0,0 -33,33 -7,121 0,0 18,32 79,41 0,0 39,-5 39,-70 0,0 -4,-16 7,-18 0,0 0,-12 -13,-15 0,0 -9,-4 -13,-15 0,0 1,-7 -25,-30 0,0 -38,-24 -67,-14 z"></path><path fill="#a4c85e" stroke="#000" stroke-width="6" d="M 420,351 c 0,0 11,0 26,-10 0,0 7,-7 23,-10 0,0 9,-3 23,-6 0,0 -25,-5 -33,-6 0,0 -8,-4 -18,2 0,0 -6,3 -9,9 0,0 -8,5 -12,21 z"></path><path fill="#a4c85e" stroke="#000" stroke-width="6" d="M 472,461 c 0,0 20,4 30,1 0,0 9,0 27,-3 0,0 -2,0 -15,15 0,0 -20,5 -21,-2 0,0 -15,-1 -21,-11 z"></path><path fill="#000" stroke="#000" d="M 445,381 c 0,0 1,41 1,41 0,0 26,24 56,6 0,0 16,-7 17,-38 0,0 -12,-30 -27,-35 0,0 -23,-8 -47,26 z"></path><path fill="none" stroke="#fff" stroke-width="3" d="M 478,370 c 0,0 2,-8 9,-3"></path><path fill="none" stroke="#fff" stroke-width="2" d="M 486,376 c 0,0 11,6 8,-5"></path></g><path fill="none" stroke="#000" stroke-width="12" d="M 400,484 c 0,0 6,-6 6,-6 0,0 7,7 7,7 0,0 -4,10 -4,10 0,0 -1,48 4,55 0,0 5,1 1,12 0,0 2,8 10,9 0,0 10,-1 15,10 0,0 1,6 8,8 0,0 4,12 -2,20 0,0 -6,12 -12,14 0,0 -5,-3 -11,11 0,0 7,8 7,8 0,0 5,-5 5,-5"></path><g stroke="#000"><path fill="#fff" stroke-width="12" d="M 238,652 c 0,0 24,44 42,76 0,0 26,26 71,32 0,0 82,9 115,-12 0,0 16,3 -46,63 0,0 -2,-9 -15,8 0,0 -11,14 -50,7 0,0 -29,-18 -51,-22 0,0 -24,1 -49,-36 0,0 -31,-103 -17,-116 z"></path><path fill="none" stroke-width="9" d="M 250,620 c 0,0 -5,14 -15,22 0,0 -15,7 -23,15"></path><path fill="none" stroke-width="6" d="M 480,760 c 0,0 -18,-31 -18,-31 0,0 1,18 1,18"></path></g></svg>